<svg xmlns="http://www.w3.org/2000/svg" width="425" height="93" style=""><rect id="backgroundrect" width="100%" height="100%" x="0" y="0" fill="none" stroke="none"/>
    
<g class="currentLayer" style=""><title>Layer 1</title><path d="M49.21799850463867,86.26499938964844 l1.3760000467300415,-11.75 q0,-1.2699999809265137 -0.8460000157356262,-1.9049999713897705 t-1.7999999523162842,-0.6349999904632568 q-1.1640000343322754,0 -2.063999891281128,0.6880000233650208 t-1.1109999418258667,2.1700000762939453 l-1.059000015258789,8.890999794006348 q-3.7039999961853027,0.3179999887943268 -6.614999771118164,0.47699999809265137 t-5.663000106811523,0.15800000727176666 q-1.4819999933242798,0 -2.9100000858306885,-0.05299999937415123 t-2.9110000133514404,-0.052000001072883606 H19.3700008392334 q-1.694000005722046,0 -3.1760001182556152,-0.21199999749660492 t-1.5870000123977661,-0.3179999887943268 l3.809999942779541,-31.43600082397461 h20.111000061035156 q-0.10599999874830246,0.6349999904632568 -0.1589999943971634,1.2170000076293945 t-0.05299999937415123,1.1119999885559082 q0,4.127999782562256 2.752000093460083,4.127999782562256 q1.1649999618530273,0 2.117000102996826,-0.6880000233650208 t1.1649999618530273,-2.063999891281128 v-0.6349999904632568 q0,-3.388000011444092 0.31700000166893005,-6.616000175476074 t1.4819999933242798,-5.663000106811523 v-0.31700000166893005 q0,-1.1640000343322754 -0.847000002861023,-1.7999999523162842 t-1.7999999523162842,-0.6349999904632568 q-1.0579999685287476,0 -1.6399999856948853,0.3700000047683716 t-1.0049999952316284,1.1119999885559082 t-0.7409999966621399,1.9049999713897705 t-0.847000002861023,2.752000093460083 h-20.110000610351562 l2.6449999809265137,-21.3799991607666 q3.069999933242798,-0.5299999713897705 7.039999961853027,-1.1649999618530273 t10.001999855041504,-0.6349999904632568 q3.174999952316284,0 5.238999843597412,0.3179999887943268 t3.6519999504089355,0.6349999904632568 h0.210999995470047 v3.174999952316284 l-0.210999995470047,3.069999933242798 q0,1.4819999933242798 0.7929999828338623,2.117000102996826 t1.9589999914169312,0.6349999904632568 t2.009999990463257,-0.6880000233650208 t1.059999942779541,-1.9579999446868896 l0.10499999672174454,-2.8580000400543213 q0,-1.4819999933242798 0.05299999937415123,-2.8580000400543213 t0.26499998569488525,-3.1760001182556152 q0,-0.8460000157356262 -0.6880000233650208,-1.5870000123977661 t-2.3299999237060547,-1.3229999542236328 t-4.445000171661377,-0.953000009059906 t-7.038000106811523,-0.3700000047683716 q-8.362000465393066,0 -13.071999549865723,1.0049999952316284 t-6.7220001220703125,1.00600004196167 q-0.9520000219345093,0 -2.328000068664551,-0.5820000171661377 t-4.340000152587891,-0.5830000042915344 q-2.434000015258789,0 -3.5460000038146973,0.6880000233650208 t-1.3229999542236328,2.1700000762939453 v0.42399999499320984 q0,1.0579999685287476 0.6880000233650208,1.8519999980926514 t1.9579999446868896,0.7940000295639038 h0.21199999749660492 q0.5299999713897705,0 0.847000002861023,-0.05299999937415123 t0.7400000095367432,-0.05299999937415123 q1.1649999618530273,0 1.8530000448226929,0.21199999749660492 t1.534999966621399,0.4230000078678131 L8.678999900817871,83.83000183105469 q-1.3760000467300415,0.42399999499320984 -3.7039999961853027,0.42399999499320984 H3.38700008392334 q-1.4819999933242798,0 -2.3289999961853027,0.9520000219345093 T0,87.322998046875 v0.3179999887943268 q0,1.3760000467300415 0.953000009059906,1.9579999446868896 t3.38700008392334,0.5820000171661377 q2.9630000591278076,0 4.285999774932861,-0.47600001096725464 t2.063999891281128,-0.47699999809265137 q0.5299999713897705,0 2.117000102996826,0.42399999499320984 t4.974999904632568,0.4230000078678131 h3.493000030517578 q1.3760000467300415,0 3.174999952316284,0.05299999937415123 t3.9170000553131104,0.05299999937415123 t5.557000160217285,0.05299999937415123 t6.77400016784668,-0.26499998569488525 t5.821000099182129,-1.1109999418258667 t2.700000047683716,-2.5929999351501465 zm46.361000061035156,-8.045000076293945 l0.10599999874830246,-1.2699999809265137 q0.10599999874830246,-0.6349999904632568 0.1589999943971634,-1.2170000076293945 t0.05299999937415123,-1.1109999418258667 q0,-4.446000099182129 -2.063999891281128,-6.933000087738037 t-5.133999824523926,-3.9170000553131104 t-6.7210001945495605,-2.1700000762939453 t-6.7210001945495605,-1.534000039100647 t-5.133999824523926,-2.117000102996826 t-2.063999891281128,-3.9700000286102295 v-0.8460000157356262 q0.3179999887943268,-1.9049999713897705 1.4290000200271606,-3.38700008392334 t2.8580000400543213,-2.48799991607666 t3.9159998893737793,-1.534000039100647 t4.604000091552734,-0.5299999713897705 q4.340000152587891,0 6.35099983215332,1.4819999933242798 t3.069999933242798,3.1760001182556152 v0.8460000157356262 q-0.10599999874830246,0.3179999887943268 -0.10599999874830246,0.7409999966621399 v0.6349999904632568 q-0.21199999749660492,0.953000009059906 -0.6349999904632568,1.746999979019165 t-0.6349999904632568,1.6399999856948853 v0.3179999887943268 q0,1.1640000343322754 0.847000002861023,1.8519999980926514 t2.009999990463257,0.6880000233650208 q0.847000002861023,0 1.5880000591278076,-0.3700000047683716 t1.2699999809265137,-1.2170000076293945 h-0.10499999672174454 q0.9520000219345093,-1.4819999933242798 1.2170000076293945,-2.700000047683716 t0.2639999985694885,-2.38100004196167 q0,-0.953000009059906 -0.10499999672174454,-1.2699999809265137 v-0.953000009059906 q0.4230000078678131,-1.1640000343322754 1.3229999542236328,-2.6989998817443848 t1.1109999418258667,-3.3340001106262207 l0.10599999874830246,-0.5299999713897705 q0,-1.375 -0.7940000295639038,-1.9049999713897705 t-1.746000051498413,-0.5289999842643738 q-1.059000015258789,0 -2.063999891281128,0.6880000233650208 t-1.218000054359436,1.8530000448226929 q-1.7990000247955322,-1.4819999933242798 -4.392000198364258,-2.5399999618530273 t-6.616000175476074,-1.059999942779541 h-0.31700000166893005 q-2.9639999866485596,0 -6.297999858856201,0.7950000166893005 t-6.191999912261963,2.5929999351501465 t-4.763000011444092,4.815999984741211 t-1.9049999713897705,7.461999893188477 q0,4.127999782562256 2.063999891281128,6.349999904632568 t5.132999897003174,3.440000057220459 t6.7210001945495605,1.8530000448226929 t6.7220001220703125,1.534999966621399 t5.132999897003174,2.434000015258789 t2.063999891281128,4.605000019073486 v0.8460000157356262 l-0.10599999874830246,0.953000009059906 l-0.10499999672174454,0.7400000095367432 q-0.42399999499320984,2.3299999237060547 -1.746999979019165,4.0229997634887695 t-3.2809998989105225,2.752000093460083 t-4.446000099182129,1.5880000591278076 t-5.132999897003174,0.6349999904632568 h-0.42399999499320984 q-2.434000015258789,0 -4.604000091552734,-0.42399999499320984 t-3.86299991607666,-1.2170000076293945 t-2.6459999084472656,-2.009999990463257 t-0.953000009059906,-2.700000047683716 v-0.7400000095367432 q0.21199999749660492,-1.7999999523162842 1.1640000343322754,-2.805999994277954 t2.063999891281128,-1.6399999856948853 t2.010999917984009,-1.2699999809265137 t1.00600004196167,-1.694000005722046 v-0.21199999749660492 q0,-0.9520000219345093 -0.6880000233650208,-1.8519999980926514 t-2.063999891281128,-0.8999999761581421 h-0.6349999904632568 q-1.694000005722046,0.3179999887943268 -3.2809998989105225,1.3760000467300415 t-2.805000066757202,2.5929999351501465 t-1.9589999914169312,3.440000057220459 t-0.7400000095367432,3.809999942779541 v0.5299999713897705 q0.210999995470047,3.38700008392334 1.8519999980926514,5.610000133514404 t4.074999809265137,3.5460000038146973 t5.3979997634887695,1.8519999980926514 t5.822000026702881,0.5299999713897705 h0.5289999842643738 q3.069999933242798,0 6.510000228881836,-0.7419999837875366 t6.455999851226807,-2.434000015258789 t5.239999771118164,-4.446000099182129 t2.9630000591278076,-6.77400016784668 zm56.62799835205078,-47.3129997253418 l1.1640000343322754,-10.267000198364258 q0,-1.0579999685287476 -0.8999999761581421,-1.5880000591278076 t-2.2219998836517334,-0.6880000233650208 t-2.805000066757202,-0.15800000727176666 h-2.434999942779541 q-2.8580000400543213,0 -5.3979997634887695,0.210999995470047 t-4.551000118255615,0.47699999809265137 t-3.2290000915527344,0.47600001096725464 t-1.3229999542236328,0.21199999749660492 q-1.0579999685287476,0 -2.6989998817443848,-0.47699999809265137 t-5.34499979019165,-0.6880000233650208 h-0.847000002861023 q-1.4819999933242798,-0.10599999874830246 -2.805000066757202,-0.1589999943971634 t-2.805000066757202,-0.052000001072883606 h-2.5399999618530273 q-1.3760000467300415,0 -2.6989998817443848,0.210999995470047 t-2.3289999961853027,0.8999999761581421 t-1.1109999418258667,2.063999891281128 l-1.1640000343322754,9.949999809265137 q0,1.1640000343322754 0.6880000233650208,1.8519999980926514 t1.746000051498413,0.6880000233650208 t2.117000102996826,-0.7409999966621399 t1.2699999809265137,-2.2230000495910645 l0.847000002861023,-6.668000221252441 q0.953000009059906,-0.10599999874830246 1.7999999523162842,-0.1589999943971634 t1.6929999589920044,-0.05299999937415123 q1.0579999685287476,0 2.5399999618530273,0.05299999937415123 t3.0169999599456787,0.1589999943971634 t2.9100000858306885,0.2639999985694885 t2.2230000495910645,0.47699999809265137 l-7.197000026702881,58.63800048828125 q-0.847000002861023,0.42399999499320984 -2.010999917984009,0.5299999713897705 t-2.434999942779541,0.10599999874830246 h-1.0579999685287476 q-1.4819999933242798,0 -2.3289999961853027,0.9520000219345093 t-1.0579999685287476,2.117000102996826 v0.3179999887943268 q0,1.3760000467300415 0.8999999761581421,1.9579999446868896 t3.3340001106262207,0.5820000171661377 t4.127999782562256,-0.6349999904632568 t2.6459999084472656,-0.6349999904632568 q0.6349999904632568,0 2.117000102996826,0.6349999904632568 t4.551000118255615,0.6349999904632568 q4.340000152587891,0 4.551000118255615,-2.8580000400543213 v-0.4230000078678131 q0,-1.059000015258789 -0.6349999904632568,-1.8530000448226929 t-1.9049999713897705,-0.7929999828338623 h-0.31700000166893005 q-0.5299999713897705,0.10499999672174454 -1.3760000467300415,0.10499999672174454 t-1.6410000324249268,-0.210999995470047 t-1.4290000200271606,-0.42399999499320984 h-0.21199999749660492 l7.197999954223633,-58.849998474121094 q0.953000009059906,0 2.2230000495910645,-0.10599999874830246 t2.752000093460083,-0.26499998569488525 t3.0160000324249268,-0.31700000166893005 t2.9110000133514404,-0.1589999943971634 q0.847000002861023,0 1.746999979019165,0.05299999937415123 t1.746000051498413,0.1589999943971634 l-0.847000002861023,7.091000080108643 q0,1.1649999618530273 0.6880000233650208,1.8530000448226929 t1.746999979019165,0.6880000233650208 t2.117000102996826,-0.7409999966621399 t1.2699999809265137,-2.2230000495910645 zm51.86399841308594,53.34700012207031 v-0.953000009059906 q0,-1.1640000343322754 -0.7929999828338623,-1.7999999523162842 t-1.8530000448226929,-0.6349999904632568 q-1.2699999809265137,0 -1.9049999713897705,0.6880000233650208 t-1.1109999418258667,1.534999966621399 t-1.059000015258789,1.534999966621399 t-1.746000051498413,0.6880000233650208 t-1.8530000448226929,-1.00600004196167 t-0.6880000233650208,-3.440000057220459 q0,-0.5289999842643738 0.05299999937415123,-1.1640000343322754 t0.1599999964237213,-1.4819999933242798 l2.6449999809265137,-21.697999954223633 q0.10599999874830246,-0.5299999713897705 0.10599999874830246,-0.953000009059906 v-0.9520000219345093 q0,-3.493000030517578 -1.3760000467300415,-6.139999866485596 t-3.756999969482422,-4.498000144958496 t-5.504000186920166,-2.805000066757202 t-6.616000175476074,-0.9520000219345093 q-7.197000026702881,0 -12.17199993133545,2.2750000953674316 t-7.197999954223633,5.980000019073486 h0.10599999874830246 q-0.4230000078678131,0.847000002861023 -0.4230000078678131,1.3769999742507935 v0.4230000078678131 q0,2.2230000495910645 2.434000015258789,2.2230000495910645 q1.2699999809265137,0 2.2230000495910645,-1.00600004196167 t2.5399999618530273,-2.2230000495910645 t4.234000205993652,-2.2219998836517334 t7.303999900817871,-1.00600004196167 q5.3979997634887695,0 8.890000343322754,2.381999969482422 t3.49399995803833,6.827000141143799 q0,0.8460000157356262 -0.10599999874830246,1.2699999809265137 l-2.434999942779541,20.110000610351562 q-3.38700008392334,3.9170000553131104 -8.572999954223633,6.297999858856201 t-11.538000106811523,2.381999969482422 q-5.079999923706055,0 -8.413999557495117,-2.9100000858306885 t-3.3340001106262207,-7.992000102996826 q0,-2.8580000400543213 1.3229999542236328,-5.3979997634887695 t3.5450000762939453,-4.340000152587891 t5.133999824523926,-2.8580000400543213 t6.085999965667725,-1.0579999685287476 q2.6459999084472656,0 4.6570000648498535,0.8460000157356262 t3.440000057220459,1.906000018119812 t2.434999942779541,1.9049999713897705 t1.6399999856948853,0.847000002861023 q1.1649999618530273,0 2.117000102996826,-0.847000002861023 t1.1649999618530273,-2.010999917984009 v-0.42399999499320984 q0,-1.5870000123977661 -1.4819999933242798,-3.069999933242798 t-3.757999897003174,-2.5920000076293945 t-4.921999931335449,-1.746999979019165 t-4.973999977111816,-0.6349999904632568 q-3.7049999237060547,0 -7.673999786376953,1.3760000467300415 t-7.197999954223633,3.9700000286102295 t-5.291999816894531,6.190999984741211 t-2.063999891281128,8.045000076293945 v0.8460000157356262 q0,3.7049999237060547 1.3760000467300415,6.616000175476074 t3.6519999504089355,4.921999931335449 t5.34499979019165,3.121999979019165 t6.456999778747559,1.1119999885559082 q5.927000045776367,0 11.11299991607666,-1.7999999523162842 t9.527000427246094,-4.974999904632568 q0.5289999842643738,3.493000030517578 2.486999988555908,5.133999824523926 t4.39300012588501,1.6399999856948853 q3.2799999713897705,0 5.927000045776367,-1.4809999465942383 t3.809999942779541,-5.3979997634887695 zm28.049999237060547,2.9630000591278076 q0.210999995470047,-0.4230000078678131 0.47600001096725464,-0.847000002861023 t0.26499998569488525,-0.8460000157356262 v-0.42399999499320984 q0,-1.0579999685287476 -0.6880000233650208,-1.7999999523162842 t-1.8530000448226929,-0.7400000095367432 q-0.7400000095367432,0 -1.4290000200271606,0.4230000078678131 t-1.534000039100647,1.00600004196167 t-1.906000018119812,1.0049999952316284 t-2.5399999618530273,0.42399999499320984 q-1.9049999713897705,0 -2.8580000400543213,-1.7999999523162842 t-0.9520000219345093,-4.973999977111816 q0,-1.694000005722046 0.31700000166893005,-3.9170000553131104 l5.610000133514404,-45.724998474121094 h10.267000198364258 q1.4819999933242798,0 2.2760000228881836,-0.847000002861023 t0.8999999761581421,-2.010999917984009 v-0.4230000078678131 q0,-0.953000009059906 -0.5830000042915344,-1.746999979019165 t-1.8519999980926514,-0.7940000295639038 H225.77000427246094 l2.434000015258789,-20.85099983215332 q0,-1.1649999618530273 -0.7940000295639038,-1.746999979019165 T225.66400146484375,0 q-1.1640000343322754,0 -2.117000102996826,0.6880000233650208 t-1.1640000343322754,2.1700000762939453 l-2.434999942779541,20.32200050354004 h-5.610000133514404 q-1.4809999465942383,0 -2.328000068664551,0.953000009059906 t-1.059000015258789,2.010999917984009 v0.21199999749660492 q0,1.0579999685287476 0.6349999904632568,1.8519999980926514 t2.01200008392334,0.7940000295639038 h5.610000133514404 l-5.610000133514404,45.724998474121094 q-0.3179999887943268,2.434999942779541 -0.3179999887943268,4.869999885559082 q0,2.328000068664551 0.4230000078678131,4.445000171661377 t1.4299999475479126,3.756999969482422 t2.697999954223633,2.5940001010894775 t4.340000152587891,0.9520000219345093 q2.2230000495910645,0 4.86899995803833,-0.6880000233650208 t5.079999923706055,-3.440000057220459 zm31.753000259399414,0 q0.21199999749660492,-0.4230000078678131 0.47699999809265137,-0.847000002861023 t0.2639999985694885,-0.8460000157356262 v-0.42399999499320984 q0,-1.0579999685287476 -0.6880000233650208,-1.7999999523162842 t-1.8519999980926514,-0.7400000095367432 q-0.7400000095367432,0 -1.4290000200271606,0.4230000078678131 t-1.534999966621399,1.00600004196167 t-1.9049999713897705,1.0049999952316284 t-2.5399999618530273,0.42399999499320984 q-1.9049999713897705,0 -2.8580000400543213,-1.7999999523162842 t-0.953000009059906,-4.973999977111816 q0,-1.694000005722046 0.3179999887943268,-3.9170000553131104 l5.610000133514404,-45.724998474121094 h10.267000198364258 q1.4819999933242798,0 2.2760000228881836,-0.847000002861023 t0.8999999761581421,-2.010999917984009 v-0.4230000078678131 q0,-0.953000009059906 -0.5830000042915344,-1.746999979019165 t-1.8519999980926514,-0.7940000295639038 h-10.267000198364258 l2.434000015258789,-20.85099983215332 q0,-1.1649999618530273 -0.7940000295639038,-1.746999979019165 T257.4179992675781,0 q-1.1640000343322754,0 -2.117000102996826,0.6880000233650208 t-1.1640000343322754,2.1700000762939453 l-2.434999942779541,20.32200050354004 h-5.610000133514404 q-1.4819999933242798,0 -2.328000068664551,0.953000009059906 t-1.059000015258789,2.010999917984009 v0.21199999749660492 q0,1.0579999685287476 0.6349999904632568,1.8519999980926514 t2.010999917984009,0.7940000295639038 h5.610000133514404 l-5.610000133514404,45.724998474121094 q-0.31700000166893005,2.434999942779541 -0.31700000166893005,4.869999885559082 q0,2.328000068664551 0.4230000078678131,4.445000171661377 t1.4299999475479126,3.756999969482422 t2.697999954223633,2.5940001010894775 t4.340000152587891,0.9520000219345093 q2.2230000495910645,0 4.86899995803833,-0.6880000233650208 t5.079999923706055,-3.440000057220459 zm59.803001403808594,-21.48699951171875 q0.10599999874830246,-0.8460000157356262 0.1599999964237213,-1.5870000123977661 t0.052000001072883606,-1.5880000591278076 q0,-4.86899995803833 -1.7999999523162842,-8.944000244140625 t-4.973999977111816,-7.039000034332275 t-7.461999893188477,-4.604000091552734 t-9.156000137329102,-1.6399999856948853 q-5.610000133514404,0 -10.954999923706055,2.1700000762939453 t-9.526000022888184,5.980000019073486 t-6.7210001945495605,8.996000289916992 t-2.5399999618530273,11.220000267028809 q0,4.869999885559082 1.7990000247955322,8.996999740600586 t4.974999904632568,7.0920000076293945 t7.461999893188477,4.6570000648498535 t9.26099967956543,1.694000005722046 q5.293000221252441,0 10.319999694824219,-1.906000018119812 t9.050000190734863,-5.34499979019165 t6.7210001945495605,-8.097000122070312 t3.3340001106262207,-10.055999755859375 zm-5.821000099182129,0 q-0.5299999713897705,4.127999782562256 -2.5399999618530273,7.673999786376953 t-5.133999824523926,6.191999912261963 t-7.039000034332275,4.181000232696533 t-8.149999618530273,1.534999966621399 q-3.9159998893737793,0 -7.25,-1.3229999542236328 t-5.822000026702881,-3.6519999504089355 t-3.86299991607666,-5.504000186920166 t-1.3760000467300415,-6.880000114440918 q0,-4.445000171661377 1.9579999446868896,-8.414999961853027 t5.133999824523926,-6.932000160217285 t7.355999946594238,-4.710000038146973 t8.62600040435791,-1.746999979019165 q3.9170000553131104,0 7.25,1.3229999542236328 t5.769999980926514,3.6519999504089355 t3.809999942779541,5.504000186920166 t1.3760000467300415,6.77400016784668 v1.1640000343322754 q0,0.5299999713897705 -0.10599999874830246,1.1640000343322754 zm62.766998291015625,0 q0.10599999874830246,-0.8460000157356262 0.15800000727176666,-1.5870000123977661 t0.05299999937415123,-1.5880000591278076 q0,-4.86899995803833 -1.7990000247955322,-8.944000244140625 t-4.974999904632568,-7.039000034332275 t-7.461999893188477,-4.604000091552734 t-9.156000137329102,-1.6399999856948853 q-5.610000133514404,0 -10.954999923706055,2.1700000762939453 t-9.526000022888184,5.980000019073486 t-6.7210001945495605,8.996000289916992 t-2.5399999618530273,11.220000267028809 q0,4.869999885559082 1.7990000247955322,8.996999740600586 t4.974999904632568,7.0920000076293945 t7.461999893188477,4.6570000648498535 t9.26099967956543,1.694000005722046 q5.293000221252441,0 10.319999694824219,-1.906000018119812 t9.050000190734863,-5.34499979019165 t6.7220001220703125,-8.097000122070312 t3.3340001106262207,-10.055999755859375 zm-5.822000026702881,0 q-0.5289999842643738,4.127999782562256 -2.5399999618530273,7.673999786376953 t-5.133999824523926,6.191999912261963 t-7.038000106811523,4.181000232696533 t-8.149999618530273,1.534999966621399 q-3.9170000553131104,0 -7.250999927520752,-1.3229999542236328 t-5.822000026702881,-3.6519999504089355 t-3.86299991607666,-5.504000186920166 t-1.3760000467300415,-6.880000114440918 q0,-4.445000171661377 1.9579999446868896,-8.414999961853027 t5.133999824523926,-6.932000160217285 t7.355999946594238,-4.710000038146973 t8.62600040435791,-1.746999979019165 q3.9170000553131104,0 7.250999927520752,1.3229999542236328 t5.769000053405762,3.6519999504089355 t3.809999942779541,5.504000186920166 t1.3760000467300415,6.77400016784668 v1.1640000343322754 q0,0.5299999713897705 -0.10599999874830246,1.1640000343322754 zm47.525001525878906,12.489999771118164 l0.10599999874830246,-1.2699999809265137 q0.10599999874830246,-0.6349999904632568 0.1589999943971634,-1.2170000076293945 t0.05299999937415123,-1.1109999418258667 q0,-4.446000099182129 -2.063999891281128,-6.933000087738037 t-5.133999824523926,-3.9170000553131104 t-6.7210001945495605,-2.1700000762939453 t-6.7210001945495605,-1.534000039100647 t-5.133999824523926,-2.117000102996826 t-2.063999891281128,-3.9700000286102295 v-0.8460000157356262 q0.3179999887943268,-1.9049999713897705 1.4290000200271606,-3.38700008392334 t2.8580000400543213,-2.48799991607666 t3.9159998893737793,-1.534000039100647 t4.604000091552734,-0.5299999713897705 q4.340000152587891,0 6.35099983215332,1.4819999933242798 t3.069999933242798,3.1760001182556152 v0.8460000157356262 q-0.10599999874830246,0.3179999887943268 -0.10599999874830246,0.7409999966621399 v0.6349999904632568 q-0.21199999749660492,0.953000009059906 -0.6349999904632568,1.746999979019165 t-0.6349999904632568,1.6399999856948853 v0.3179999887943268 q0,1.1640000343322754 0.847000002861023,1.8519999980926514 t2.009999990463257,0.6880000233650208 q0.847000002861023,0 1.5880000591278076,-0.3700000047683716 t1.2699999809265137,-1.2170000076293945 h-0.10499999672174454 q0.9520000219345093,-1.4819999933242798 1.2170000076293945,-2.700000047683716 t0.2639999985694885,-2.38100004196167 q0,-0.953000009059906 -0.10499999672174454,-1.2699999809265137 v-0.953000009059906 q0.4230000078678131,-1.1640000343322754 1.3229999542236328,-2.6989998817443848 t1.1109999418258667,-3.3340001106262207 l0.10599999874830246,-0.5299999713897705 q0,-1.375 -0.7940000295639038,-1.9049999713897705 t-1.746000051498413,-0.5289999842643738 q-1.059000015258789,0 -2.063999891281128,0.6880000233650208 t-1.218000054359436,1.8530000448226929 q-1.7990000247955322,-1.4819999933242798 -4.392000198364258,-2.5399999618530273 t-6.616000175476074,-1.059999942779541 h-0.31700000166893005 q-2.9639999866485596,0 -6.297999858856201,0.7950000166893005 t-6.191999912261963,2.5929999351501465 t-4.763000011444092,4.815999984741211 t-1.9049999713897705,7.461999893188477 q0,4.127999782562256 2.063999891281128,6.349999904632568 t5.132999897003174,3.440000057220459 t6.7210001945495605,1.8530000448226929 t6.7220001220703125,1.534999966621399 t5.132999897003174,2.434000015258789 t2.063999891281128,4.605000019073486 v0.8460000157356262 l-0.10599999874830246,0.953000009059906 l-0.10499999672174454,0.7400000095367432 q-0.42399999499320984,2.3299999237060547 -1.746999979019165,4.0229997634887695 t-3.2809998989105225,2.752000093460083 t-4.446000099182129,1.5880000591278076 t-5.132999897003174,0.6349999904632568 h-0.42399999499320984 q-2.434000015258789,0 -4.604000091552734,-0.42399999499320984 t-3.86299991607666,-1.2170000076293945 t-2.6459999084472656,-2.009999990463257 t-0.953000009059906,-2.700000047683716 v-0.7400000095367432 q0.21199999749660492,-1.7999999523162842 1.1640000343322754,-2.805999994277954 t2.063999891281128,-1.6399999856948853 t2.010999917984009,-1.2699999809265137 t1.00600004196167,-1.694000005722046 v-0.21199999749660492 q0,-0.9520000219345093 -0.6880000233650208,-1.8519999980926514 t-2.063999891281128,-0.8999999761581421 h-0.6349999904632568 q-1.694000005722046,0.3179999887943268 -3.2809998989105225,1.3760000467300415 t-2.805000066757202,2.5929999351501465 t-1.9589999914169312,3.440000057220459 t-0.7400000095367432,3.809999942779541 v0.5299999713897705 q0.210999995470047,3.38700008392334 1.8519999980926514,5.610000133514404 t4.074999809265137,3.5460000038146973 t5.3979997634887695,1.8519999980926514 t5.822000026702881,0.5299999713897705 h0.5289999842643738 q3.069999933242798,0 6.510000228881836,-0.7419999837875366 t6.455999851226807,-2.434000015258789 t5.239999771118164,-4.446000099182129 t2.9630000591278076,-6.77400016784668 z" fill="#ffff" id="svg_1" class=""/></g></svg>