<?xml version="1.0"?>
<svg xmlns="http://www.w3.org/2000/svg"  width="425" height="254">
  <g fill="#ffffff" transform="matrix(0.7777798217073629,0,0,0.7777798217073629,174.11012882987075,-0.7798033119966856)">
    <path d="M90.962,13.992l-9.951,3.673c-1.115,0.412-1.676,1.643-1.27,2.752c0.234,0.63,0.732,1.067,1.32,1.255  c0.414,0.134,0.835,0.423,0.563,1.042c-0.037,0.082-0.077,0.161-0.112,0.243c-0.461,1.107-1.406,0.159-1.406,0.159l-6.04-6.039  c-0.835-0.835-2.192-0.837-3.03,0L53.225,34.885c-0.837,0.837-2.192,0.837-3.03,0l-1.111-1.111c-0.837-0.837-2.193-0.837-3.03,0  l-0.002,0.002l-0.015-0.017c-0.527,0.441-1.306,0.431-1.8-0.063v0.004l-0.004-0.004h0.004c-0.494-0.494-0.506-1.274-0.063-1.8  l-0.017-0.015l1.506-1.507c0.837-0.837,0.837-2.193,0-3.03c-0.837-0.839-2.193-0.839-3.03,0l-7.785,7.782  c-0.837,0.835-0.837,2.193,0,3.03c0.839,0.837,2.195,0.837,3.032,0l1.506-1.507l0.015,0.015c0.527-0.441,1.306-0.431,1.8,0.063  c0.494,0.494,0.506,1.274,0.063,1.8l0.017,0.017c-0.628,0.628-0.732,1.525-0.471,2.321c0.255,0.776,0.437,1.479-0.161,2.078  c-0.318,0.318-1.118,1.115-1.8,1.799c-1.162,1.162-1.616,0.877-2.691,1.069l0.009,0.006c-1.457,0.115-2.875,0.716-3.987,1.827  L17.305,62.522c-1.109,1.109-1.71,2.528-1.827,3.984l-0.006-0.006c-0.193,1.073,0.092,1.529-1.067,2.688l-4.256,4.257  c-0.234,0.234-0.41,0.521-0.517,0.837l-2.099,6.295l-1.904,1.904c-0.837,0.837-0.837,2.193,0,3.03c0.837,0.837,2.193,0.837,3.03,0  l1.904-1.902l6.295-2.095c0.318-0.104,0.603-0.282,0.839-0.52l4.259-4.256c1.159-1.159,1.615-0.875,2.687-1.067l-0.015-0.017  c1.509-0.124,2.915-0.741,3.993-1.818l14.876-14.877c1.111-1.111,1.708-2.532,1.829-3.984l0.006,0.006  c0.192-1.073-0.092-1.529,1.069-2.688l1.804-1.806c0.599-0.588,1.297-0.41,2.072-0.157c0.207,0.069,0.423,0.109,0.636,0.124  c0.059,0.004,0.111,0.034,0.169,0.034c0.09,0,0.174-0.04,0.262-0.052c0.113-0.013,0.224-0.036,0.335-0.067  c0.106-0.032,0.211-0.055,0.313-0.103c0.216-0.099,0.423-0.224,0.605-0.406l1.74-1.741c0.835-0.839,2.191-0.837,3.03,0  l18.123,18.126c0.837,0.837,2.192,0.84,3.029,0l15.853-15.843c0.835-0.837,0.837-2.193,0-3.03c-0.837-0.837-2.193-0.839-3.03,0  L78.523,60.183c-0.838,0.84-2.193,0.84-3.03,0l-0.002,0.003l-1.727-1.727c-0.802-0.802-0.813-2.063-0.084-2.907  c0.601-0.55,1.505-0.555,2.12-0.029l0.218,0.218c0.832,0.833,2.197,0.833,3.029,0l0.635-0.634c0.004-0.005,0.01-0.007,0.015-0.011  l8.515-8.519c0.004-0.004,0.007-0.008,0.009-0.013l0.636-0.636c0.835-0.833,0.835-2.197,0-3.03l-0.161-0.161  c-0.586-0.586-0.597-1.5-0.09-2.13c0.841-0.787,2.149-0.781,2.97,0.04l0.046-0.046c0.835,0.607,1.996,0.573,2.752-0.184  c0.835-0.835,0.837-2.193,0-3.03l-3.865-3.865c-0.833-0.833-1.272-2.459-0.912-3.581c1.304-3.382,1.85-7.002,1.575-10.628  c0.004-0.013,0.027-0.025,0.025-0.038c-0.036-0.425,0.23-0.883,0.592-1.017l0.657-0.243c0.3-0.111,0.559-0.283,0.772-0.494  c0.573-0.573,0.793-1.448,0.496-2.258C93.304,14.151,92.071,13.584,90.962,13.992z M18.422,74.21l-2.641,2.641  c-0.417,0.417-1.214,0.911-1.774,1.097l-0.197,0.065c-0.561,0.186-0.867-0.119-0.678-0.679l0.067-0.198  c0.184-0.561,0.678-1.358,1.097-1.774l2.637-2.64c0.417-0.416,1.092-0.422,1.502-0.012S18.836,73.794,18.422,74.21z M25.571,67.796  c0.835,0.835,0.835,2.181,0.008,3.02c-0.398,0.39-0.925,0.607-1.486,0.607c-0.569,0.002-1.103-0.218-1.499-0.615l-2.26-2.258  c-0.825-0.823-0.825-2.164-0.004-2.991c0.837-0.822,2.181-0.822,3.014,0.011L25.571,67.796z M31.608,64.782  c-0.839,0.816-2.174,0.814-3.005-0.017l-2.225-2.225c-0.833-0.832-0.835-2.176-0.013-3.015c0.837-0.814,2.168-0.813,3.001,0.012  l2.235,2.235C32.43,62.608,32.43,63.945,31.608,64.782z M40.466,52.934c0.826,0.827,0.826,2.171,0,2.997l-2.817,2.816  c-0.837,0.829-2.183,0.827-3.018-0.004l-2.231-2.23c-0.835-0.835-0.835-2.191,0.002-3.028l2.808-2.808  c0.827-0.827,2.17-0.827,2.999,0L40.466,52.934z M45.411,47.221l-1.541,1.54c-0.416,0.417-1.092,0.423-1.502,0.015  c-0.41-0.41-0.404-1.086,0.015-1.502l1.541-1.54c0.414-0.417,1.092-0.423,1.502-0.015C45.834,46.129,45.828,46.805,45.411,47.221z   M52.063,42.816c0.419,0.418,0.419,1.099,0,1.515l-0.222,0.226c-0.419,0.417-1.101,0.417-1.517,0l-3.74-3.74  c-0.417-0.418-0.417-1.099,0-1.515l0.226-0.226c0.417-0.417,1.097-0.417,1.515,0L52.063,42.816z M84.268,44.461l-6.687,6.69  c-0.571-0.251-1.086-0.603-1.525-1.042s-0.793-0.956-1.044-1.527l6.692-6.688c0.564,0.249,1.077,0.599,1.521,1.042  C83.665,43.375,84.017,43.894,84.268,44.461z M85.515,34.585c0.804,0.804,0.814,2.093,0.067,2.932  c-0.633,0.54-1.574,0.529-2.173-0.069l-0.146-0.146c-0.833-0.833-2.197-0.833-3.03,0l-9.81,9.813c-0.833,0.833-0.833,2.197,0,3.03  l0.146,0.146c0.596,0.596,0.606,1.542,0.064,2.174c-0.839,0.747-2.126,0.737-2.93-0.066l-3.662-3.662  c-0.804-0.804-0.814-2.093-0.067-2.93c0.632-0.542,1.578-0.532,2.175,0.064l0.146,0.146c0.833,0.833,2.197,0.833,3.03,0l9.808-9.812  c0.833-0.833,0.833-2.197,0-3.03l-0.145-0.145c-0.596-0.599-0.606-1.54-0.066-2.172c0.839-0.748,2.128-0.737,2.932,0.067  L85.515,34.585z M66.336,40.384c-0.439-0.439-0.791-0.956-1.043-1.527l6.687-6.682c0.569,0.249,1.084,0.603,1.525,1.044  c0.439,0.439,0.791,0.952,1.04,1.519l-6.69,6.688C67.29,41.178,66.775,40.824,66.336,40.384z M75.794,24.865  c0.804,0.804,0.813,2.091,0.067,2.932c-0.632,0.54-1.574,0.53-2.172-0.067l-0.149-0.15c-0.835-0.833-2.199-0.833-3.032,0  L60.7,37.392c-0.833,0.833-0.833,2.197,0,3.03l0.148,0.149c0.597,0.596,0.606,1.542,0.064,2.172c-0.837,0.75-2.126,0.739-2.93-0.065  l-1.73-1.73c-0.833-0.833-0.833-2.197,0-3.03l14.78-14.78c0.833-0.835,2.197-0.835,3.03,0L75.794,24.865z M86.992,21.111  c0.011,0.597,0.021,1.082-0.09,2.151c-0.126,1.23-0.366,2.449-0.716,3.635c-0.17,0.58-0.264,0.833-0.381,1.146  c-0.115,0.312-0.373,0.402-0.571,0.205c-0.199-0.201-0.362-0.364-0.362-0.364s-0.184-0.184-0.41-0.41  c-0.226-0.228-0.278-0.603-0.115-0.835c0.161-0.23,0.295-0.42,0.555-0.862c0.582-0.996,1.036-2.055,1.358-3.158  c0.236-0.814,0.293-1.195,0.364-1.661c0.071-0.465,0.178-0.862,0.238-0.883C86.923,20.05,86.983,20.517,86.992,21.111z"></path>
  </g>
  <g fill="#ffffff" transform="matrix(5.2923069283894915,0,0,5.2923069283894915,-2.6461452625968085,58.95384645413637)">
    <path d="M9.8 23.3 l0.26 -2.22 q0 -0.24 -0.16 -0.36 t-0.34 -0.12 q-0.22 0 -0.39 0.13 t-0.21 0.41 l-0.2 1.68 q-0.7 0.06 -1.25 0.09 t-1.07 0.03 q-0.28 0 -0.55 -0.01 t-0.55 -0.01 l-1.18 0 q-0.32 0 -0.6 -0.04 t-0.3 -0.06 l0.72 -5.94 l3.8 0 q-0.02 0.12 -0.03 0.23 t-0.01 0.21 q0 0.78 0.52 0.78 q0.22 0 0.4 -0.13 t0.22 -0.39 l0 -0.12 q0 -0.64 0.06 -1.25 t0.28 -1.07 l0 -0.06 q0 -0.22 -0.16 -0.34 t-0.34 -0.12 q-0.2 0 -0.31 0.07 t-0.19 0.21 t-0.14 0.36 t-0.16 0.52 l-3.8 0 l0.5 -4.04 q0.58 -0.1 1.33 -0.22 t1.89 -0.12 q0.6 0 0.99 0.06 t0.69 0.12 l0.04 0 l0 0.6 t-0.04 0.58 q0 0.28 0.15 0.4 t0.37 0.12 t0.38 -0.13 t0.2 -0.37 l0.02 -0.54 q0 -0.28 0.01 -0.54 t0.05 -0.6 q0 -0.16 -0.13 -0.3 t-0.44 -0.25 t-0.84 -0.18 t-1.33 -0.07 q-1.58 0 -2.47 0.19 t-1.27 0.19 q-0.18 0 -0.44 -0.11 t-0.82 -0.11 q-0.46 0 -0.67 0.13 t-0.25 0.41 l0 0.08 q0 0.2 0.13 0.35 t0.37 0.15 l0.04 0 q0.1 0 0.16 -0.01 t0.14 -0.01 q0.22 0 0.35 0.04 t0.29 0.08 l-1.38 11.16 q-0.26 0.08 -0.7 0.08 l-0.3 0 q-0.28 0 -0.44 0.18 t-0.2 0.4 l0 0.06 q0 0.26 0.18 0.37 t0.64 0.11 q0.56 0 0.81 -0.09 t0.39 -0.09 q0.1 0 0.4 0.08 t0.94 0.08 l0.66 0 q0.26 0 0.6 0.01 t0.74 0.01 t1.05 0.01 t1.28 -0.05 t1.1 -0.21 t0.51 -0.49 z M18.56 21.78 l0.02 -0.24 q0.02 -0.12 0.03 -0.23 t0.01 -0.21 q0 -0.84 -0.39 -1.31 t-0.97 -0.74 t-1.27 -0.41 t-1.27 -0.29 t-0.97 -0.4 t-0.39 -0.75 l0 -0.16 q0.06 -0.36 0.27 -0.64 t0.54 -0.47 t0.74 -0.29 t0.87 -0.1 q0.82 0 1.2 0.28 t0.58 0.6 l0 0.16 q-0.02 0.06 -0.02 0.14 l0 0.12 q-0.04 0.18 -0.12 0.33 t-0.12 0.31 l0 0.06 q0 0.22 0.16 0.35 t0.38 0.13 q0.16 0 0.3 -0.07 t0.24 -0.23 l-0.02 0 q0.18 -0.28 0.23 -0.51 t0.05 -0.45 q0 -0.18 -0.02 -0.24 l0 -0.18 q0.08 -0.22 0.25 -0.51 t0.21 -0.63 l0.02 -0.1 q0 -0.26 -0.15 -0.36 t-0.33 -0.1 q-0.2 0 -0.39 0.13 t-0.23 0.35 q-0.34 -0.28 -0.83 -0.48 t-1.25 -0.2 l-0.06 0 q-0.56 0 -1.19 0.15 t-1.17 0.49 t-0.9 0.91 t-0.36 1.41 q0 0.78 0.39 1.2 t0.97 0.65 t1.27 0.35 t1.27 0.29 t0.97 0.46 t0.39 0.87 l0 0.16 t-0.02 0.18 l-0.02 0.14 q-0.08 0.44 -0.33 0.76 t-0.62 0.52 t-0.84 0.3 t-0.97 0.12 l-0.08 0 q-0.46 0 -0.87 -0.08 t-0.73 -0.23 t-0.5 -0.38 t-0.18 -0.51 l0 -0.14 q0.04 -0.34 0.22 -0.53 t0.39 -0.31 t0.38 -0.24 t0.19 -0.32 l0 -0.04 q0 -0.18 -0.13 -0.35 t-0.39 -0.17 l-0.12 0 q-0.32 0.06 -0.62 0.26 t-0.53 0.49 t-0.37 0.65 t-0.14 0.72 l0 0.1 q0.04 0.64 0.35 1.06 t0.77 0.67 t1.02 0.35 t1.1 0.1 l0.1 0 q0.58 0 1.23 -0.14 t1.22 -0.46 t0.99 -0.84 t0.56 -1.28 z M29.259999999999998 12.84 l0.22 -1.94 q0 -0.2 -0.17 -0.3 t-0.42 -0.13 t-0.53 -0.03 l-0.46 0 q-0.54 0 -1.02 0.04 t-0.86 0.09 t-0.61 0.09 t-0.25 0.04 q-0.2 0 -0.51 -0.09 t-1.01 -0.13 l-0.16 0 q-0.28 -0.02 -0.53 -0.03 t-0.53 -0.01 l-0.48 0 q-0.26 0 -0.51 0.04 t-0.44 0.17 t-0.21 0.39 l-0.22 1.88 q0 0.22 0.13 0.35 t0.33 0.13 t0.4 -0.14 t0.24 -0.42 l0.16 -1.26 q0.18 -0.02 0.34 -0.03 t0.32 -0.01 q0.2 0 0.48 0.01 t0.57 0.03 t0.55 0.05 t0.42 0.09 l-1.36 11.08 q-0.16 0.08 -0.38 0.1 t-0.46 0.02 l-0.2 0 q-0.28 0 -0.44 0.18 t-0.2 0.4 l0 0.06 q0 0.26 0.17 0.37 t0.63 0.11 t0.78 -0.12 t0.5 -0.12 q0.12 0 0.4 0.12 t0.86 0.12 q0.82 0 0.86 -0.54 l0 -0.08 q0 -0.2 -0.12 -0.35 t-0.36 -0.15 l-0.06 0 q-0.1 0.02 -0.26 0.02 t-0.31 -0.04 t-0.27 -0.08 l-0.04 0 l1.36 -11.12 q0.18 0 0.42 -0.02 t0.52 -0.05 t0.57 -0.06 t0.55 -0.03 q0.16 0 0.33 0.01 t0.33 0.03 l-0.16 1.34 q0 0.22 0.13 0.35 t0.33 0.13 t0.4 -0.14 t0.24 -0.42 z M39.06 22.92 l0 -0.18 q0 -0.22 -0.15 -0.34 t-0.35 -0.12 q-0.24 0 -0.36 0.13 t-0.21 0.29 t-0.2 0.29 t-0.33 0.13 t-0.35 -0.19 t-0.13 -0.65 q0 -0.1 0.01 -0.22 t0.03 -0.28 l0.5 -4.1 q0.02 -0.1 0.02 -0.18 l0 -0.18 q0 -0.66 -0.26 -1.16 t-0.71 -0.85 t-1.04 -0.53 t-1.25 -0.18 q-1.36 0 -2.3 0.43 t-1.36 1.13 l0.02 0 q-0.08 0.16 -0.08 0.26 l0 0.08 q0 0.42 0.46 0.42 q0.24 0 0.42 -0.19 t0.48 -0.42 t0.8 -0.42 t1.38 -0.19 q1.02 0 1.68 0.45 t0.66 1.29 q0 0.16 -0.02 0.24 l-0.46 3.8 q-0.64 0.74 -1.62 1.19 t-2.18 0.45 q-0.96 0 -1.59 -0.55 t-0.63 -1.51 q0 -0.54 0.25 -1.02 t0.67 -0.82 t0.97 -0.54 t1.15 -0.2 q0.5 0 0.88 0.16 t0.65 0.36 t0.46 0.36 t0.31 0.16 q0.22 0 0.4 -0.16 t0.22 -0.38 l0 -0.08 q0 -0.3 -0.28 -0.58 t-0.71 -0.49 t-0.93 -0.33 t-0.94 -0.12 q-0.7 0 -1.45 0.26 t-1.36 0.75 t-1 1.17 t-0.39 1.52 l0 0.16 q0 0.7 0.26 1.25 t0.69 0.93 t1.01 0.59 t1.22 0.21 q1.12 0 2.1 -0.34 t1.8 -0.94 q0.1 0.66 0.47 0.97 t0.83 0.31 q0.62 0 1.12 -0.28 t0.72 -1.02 z M44.36 23.48 q0.04 -0.08 0.09 -0.16 t0.05 -0.16 l0 -0.08 q0 -0.2 -0.13 -0.34 t-0.35 -0.14 q-0.14 0 -0.27 0.08 t-0.29 0.19 t-0.36 0.19 t-0.48 0.08 q-0.36 0 -0.54 -0.34 t-0.18 -0.94 q0 -0.32 0.06 -0.74 l1.06 -8.64 l1.94 0 q0.28 0 0.43 -0.16 t0.17 -0.38 l0 -0.08 q0 -0.18 -0.11 -0.33 t-0.35 -0.15 l-1.94 0 l0.46 -3.94 q0 -0.22 -0.15 -0.33 t-0.33 -0.11 q-0.22 0 -0.4 0.13 t-0.22 0.41 l-0.46 3.84 l-1.06 0 q-0.28 0 -0.44 0.18 t-0.2 0.38 l0 0.04 q0 0.2 0.12 0.35 t0.38 0.15 l1.06 0 l-1.06 8.64 q-0.06 0.46 -0.06 0.92 q0 0.44 0.08 0.84 t0.27 0.71 t0.51 0.49 t0.82 0.18 q0.42 0 0.92 -0.13 t0.96 -0.65 z M50.36 23.48 q0.04 -0.08 0.09 -0.16 t0.05 -0.16 l0 -0.08 q0 -0.2 -0.13 -0.34 t-0.35 -0.14 q-0.14 0 -0.27 0.08 t-0.29 0.19 t-0.36 0.19 t-0.48 0.08 q-0.36 0 -0.54 -0.34 t-0.18 -0.94 q0 -0.32 0.06 -0.74 l1.06 -8.64 l1.94 0 q0.28 0 0.43 -0.16 t0.17 -0.38 l0 -0.08 q0 -0.18 -0.11 -0.33 t-0.35 -0.15 l-1.94 0 l0.46 -3.94 q0 -0.22 -0.15 -0.33 t-0.33 -0.11 q-0.22 0 -0.4 0.13 t-0.22 0.41 l-0.46 3.84 l-1.06 0 q-0.28 0 -0.44 0.18 t-0.2 0.38 l0 0.04 q0 0.2 0.12 0.35 t0.38 0.15 l1.06 0 l-1.06 8.64 q-0.06 0.46 -0.06 0.92 q0 0.44 0.08 0.84 t0.27 0.71 t0.51 0.49 t0.82 0.18 q0.42 0 0.92 -0.13 t0.96 -0.65 z M61.66 19.42 q0.02 -0.16 0.03 -0.3 t0.01 -0.3 q0 -0.92 -0.34 -1.69 t-0.94 -1.33 t-1.41 -0.87 t-1.73 -0.31 q-1.06 0 -2.07 0.41 t-1.8 1.13 t-1.27 1.7 t-0.48 2.12 q0 0.92 0.34 1.7 t0.94 1.34 t1.41 0.88 t1.75 0.32 q1 0 1.95 -0.36 t1.71 -1.01 t1.27 -1.53 t0.63 -1.9 z M60.56 19.42 q-0.1 0.78 -0.48 1.45 t-0.97 1.17 t-1.33 0.79 t-1.54 0.29 q-0.74 0 -1.37 -0.25 t-1.1 -0.69 t-0.73 -1.04 t-0.26 -1.3 q0 -0.84 0.37 -1.59 t0.97 -1.31 t1.39 -0.89 t1.63 -0.33 q0.74 0 1.37 0.25 t1.09 0.69 t0.72 1.04 t0.26 1.28 l0 0.22 q0 0.1 -0.02 0.22 z M72.42 19.42 q0.02 -0.16 0.03 -0.3 t0.01 -0.3 q0 -0.92 -0.34 -1.69 t-0.94 -1.33 t-1.41 -0.87 t-1.73 -0.31 q-1.06 0 -2.07 0.41 t-1.8 1.13 t-1.27 1.7 t-0.48 2.12 q0 0.92 0.34 1.7 t0.94 1.34 t1.41 0.88 t1.75 0.32 q1 0 1.95 -0.36 t1.71 -1.01 t1.27 -1.53 t0.63 -1.9 z M71.32 19.42 q-0.1 0.78 -0.48 1.45 t-0.97 1.17 t-1.33 0.79 t-1.54 0.29 q-0.74 0 -1.37 -0.25 t-1.1 -0.69 t-0.73 -1.04 t-0.26 -1.3 q0 -0.84 0.37 -1.59 t0.97 -1.31 t1.39 -0.89 t1.63 -0.33 q0.74 0 1.37 0.25 t1.09 0.69 t0.72 1.04 t0.26 1.28 l0 0.22 q0 0.1 -0.02 0.22 z M80.3 21.78 l0.02 -0.24 q0.02 -0.12 0.03 -0.23 t0.01 -0.21 q0 -0.84 -0.39 -1.31 t-0.97 -0.74 t-1.27 -0.41 t-1.27 -0.29 t-0.97 -0.4 t-0.39 -0.75 l0 -0.16 q0.06 -0.36 0.27 -0.64 t0.54 -0.47 t0.74 -0.29 t0.87 -0.1 q0.82 0 1.2 0.28 t0.58 0.6 l0 0.16 q-0.02 0.06 -0.02 0.14 l0 0.12 q-0.04 0.18 -0.12 0.33 t-0.12 0.31 l0 0.06 q0 0.22 0.16 0.35 t0.38 0.13 q0.16 0 0.3 -0.07 t0.24 -0.23 l-0.02 0 q0.18 -0.28 0.23 -0.51 t0.05 -0.45 q0 -0.18 -0.02 -0.24 l0 -0.18 q0.08 -0.22 0.25 -0.51 t0.21 -0.63 l0.02 -0.1 q0 -0.26 -0.15 -0.36 t-0.33 -0.1 q-0.2 0 -0.39 0.13 t-0.23 0.35 q-0.34 -0.28 -0.83 -0.48 t-1.25 -0.2 l-0.06 0 q-0.56 0 -1.19 0.15 t-1.17 0.49 t-0.9 0.91 t-0.36 1.41 q0 0.78 0.39 1.2 t0.97 0.65 t1.27 0.35 t1.27 0.29 t0.97 0.46 t0.39 0.87 l0 0.16 t-0.02 0.18 l-0.02 0.14 q-0.08 0.44 -0.33 0.76 t-0.62 0.52 t-0.84 0.3 t-0.97 0.12 l-0.08 0 q-0.46 0 -0.87 -0.08 t-0.73 -0.23 t-0.5 -0.38 t-0.18 -0.51 l0 -0.14 q0.04 -0.34 0.22 -0.53 t0.39 -0.31 t0.38 -0.24 t0.19 -0.32 l0 -0.04 q0 -0.18 -0.13 -0.35 t-0.39 -0.17 l-0.12 0 q-0.32 0.06 -0.62 0.26 t-0.53 0.49 t-0.37 0.65 t-0.14 0.72 l0 0.1 q0.04 0.64 0.35 1.06 t0.77 0.67 t1.02 0.35 t1.1 0.1 l0.1 0 q0.58 0 1.23 -0.14 t1.22 -0.46 t0.99 -0.84 t0.56 -1.28 z"></path>
  </g>
  <g fill="#ffffff" transform="matrix(3.3717464454379176,0,0,3.3717464454379176,125.42863741261465,167.65412411266215)">
    <path d="M9.288 18.762900000000002 c0.22034 0 0.3222 0.10136 0.3222 0.32154 l0 1.661 c0 0.18661 -0.13559 0.33898 -0.32203 0.33898 l-0.77966 0 l0 2.5932 c0 0.20339 -0.11864 0.32203 -0.32203 0.32203 l-1.6442 0 c-0.18644 0 -0.35593 -0.15238 -0.35593 -0.32186 l0 -2.5932 l-5.0678 0 c-0.16949 0 -0.33898 -0.13559 -0.33898 -0.32203 l-0.016949 -1.661 c0 -0.11864 0.050847 -0.22034 0.15254 -0.27119 c1.5085 -1.2373 2.7458 -2.9322 3.4914 -4.8307 c0.39 -1.0168 0.50864 -1.8303 0.52559 -2.8981 c0 -0.18644 0.13543 -0.32203 0.32203 -0.32203 l1.8475 0 c0.20339 0 0.33898 0.15254 0.33898 0.33898 c-0.050847 1.7966 -0.50847 3.5932 -1.1525 4.9153 c-0.49153 0.94915 -1.2373 1.9153 -2.1017 2.7288 l2 0 l0 -0.72881 c0 -0.18644 0.15238 -0.33898 0.32203 -0.37271 l1.661 -0.15254 c0.20339 -0.016949 0.33898 0.15271 0.33898 0.3561 l0 0.89831 l0.77966 0 z M25.982898305084746 24.20339 c-3.6441 0 -5.1017 -3.0678 -5.1017 -6.6778 c0 -3.6271 1.4576 -6.7458 5.1017 -6.7458 c3.6271 0 5.1017 3.1186 5.1017 6.7458 c0 3.61 -1.4746 6.6778 -5.1017 6.6778 z M25.99979830508475 21.8646 c2.2203 0 2.678 -2.1188 2.678 -4.339 c0 -2.2542 -0.45763 -4.4068 -2.678 -4.4068 s-2.6949 2.1525 -2.6949 4.4068 c0 2.2202 0.47458 4.339 2.6949 4.339 z M50.881220338983056 18.762900000000002 c0.22034 0 0.3222 0.10136 0.3222 0.32154 l0 1.661 c0 0.18661 -0.13559 0.33898 -0.32203 0.33898 l-0.77966 0 l0 2.5932 c0 0.20339 -0.11864 0.32203 -0.32203 0.32203 l-1.6442 0 c-0.18644 0 -0.35593 -0.15238 -0.35593 -0.32186 l0 -2.5932 l-5.0678 0 c-0.16949 0 -0.33898 -0.13559 -0.33898 -0.32203 l-0.016949 -1.661 c0 -0.11864 0.050847 -0.22034 0.15254 -0.27119 c1.5085 -1.2373 2.7458 -2.9322 3.4914 -4.8307 c0.39 -1.0168 0.50864 -1.8303 0.52559 -2.8981 c0 -0.18644 0.13543 -0.32203 0.32203 -0.32203 l1.8475 0 c0.20339 0 0.33898 0.15254 0.33898 0.33898 c-0.050847 1.7966 -0.50847 3.5932 -1.1525 4.9153 c-0.49153 0.94915 -1.2373 1.9153 -2.1017 2.7288 l2 0 l0 -0.72881 c0 -0.18644 0.15238 -0.33898 0.32203 -0.37271 l1.661 -0.15254 c0.20339 -0.016949 0.33898 0.15271 0.33898 0.3561 l0 0.89831 l0.77966 0 z"></path>
  </g>
</svg>